<?xml version="1.0" standalone="no"?>
<!DOCTYPE svg PUBLIC "-//W3C//DTD SVG 20010904//EN"
 "http://www.w3.org/TR/2001/REC-SVG-20010904/DTD/svg10.dtd">
<svg version="1.0" xmlns="http://www.w3.org/2000/svg"
 width="1207.000000pt" height="506.000000pt" viewBox="0 0 1207.000000 506.000000"
 preserveAspectRatio="xMidYMid meet">
<metadata>
Created by potrace 1.16, written by Peter Selinger 2001-2019
</metadata>
<g transform="translate(0.000000,506.000000) scale(0.100000,-0.100000)"
fill="#000000" stroke="none">
<path d="M7470 4493 c-206 -36 -570 -232 -938 -506 -188 -140 -231 -179 -244
-219 -19 -64 3 -100 112 -185 91 -71 328 -240 399 -286 19 -12 42 -27 50 -32
9 -6 35 -23 58 -38 24 -15 45 -27 49 -27 3 0 19 -9 34 -20 16 -11 78 -45 138
-75 230 -115 365 -147 519 -126 186 26 315 91 449 226 78 78 99 106 138 186
63 131 79 199 79 344 0 137 -16 210 -68 320 -60 125 -135 217 -241 295 -148
110 -375 171 -534 143z m329 -528 c86 -25 96 -43 95 -160 0 -96 -28 -211 -66
-272 -43 -72 -283 -106 -448 -64 -47 12 -91 28 -100 36 -11 11 -16 42 -18 108
-4 104 13 190 55 274 l26 51 81 22 c44 12 86 23 91 25 26 11 225 -3 284 -20z"/>
<path d="M5112 4080 c-31 -29 -29 -73 4 -99 24 -19 40 -21 172 -21 l144 0 -6
-57 c-4 -32 -9 -66 -12 -75 -5 -17 -31 -18 -365 -18 -383 0 -409 -3 -424 -49
-9 -28 4 -70 25 -81 11 -6 162 -10 373 -10 194 0 356 -2 358 -5 3 -2 1 -34 -5
-70 l-9 -65 -112 0 c-98 0 -116 -3 -139 -21 -32 -25 -35 -70 -6 -99 17 -17 33
-20 125 -20 83 0 105 -3 105 -14 0 -16 -24 -177 -75 -496 -20 -124 -44 -281
-55 -350 -11 -69 -35 -226 -55 -350 -20 -124 -43 -270 -51 -325 -8 -55 -21
-138 -29 -185 -24 -145 -46 -302 -43 -306 2 -2 63 -8 136 -14 131 -10 376 0
393 18 5 4 15 52 23 107 31 205 88 561 95 595 l7 35 84 3 c72 2 92 -1 130 -20
66 -33 82 -75 135 -343 47 -237 61 -288 97 -338 81 -114 372 -77 547 70 l34
29 -32 34 c-46 51 -64 110 -115 374 -51 267 -76 336 -148 409 -24 23 -66 54
-93 67 l-49 24 35 25 c19 13 61 52 94 86 68 70 458 630 459 660 1 27 -31 32
-216 34 -285 2 -313 -17 -574 -390 -181 -259 -191 -269 -274 -269 -32 0 -40 4
-40 18 0 11 16 120 35 243 20 123 45 285 56 359 11 74 24 151 28 170 l7 35
234 3 c224 2 235 3 257 24 31 29 30 71 -3 97 -25 20 -39 21 -247 21 l-219 0 7
57 c11 87 5 83 115 83 111 0 130 9 130 64 0 53 -27 69 -123 74 -45 2 -83 5
-83 6 -1 0 -4 34 -6 74 l-4 72 204 0 c202 0 203 0 227 25 31 30 32 65 2 93
l-23 22 -610 0 c-600 0 -611 0 -632 -20z"/>
<path d="M967 3746 c-134 -36 -192 -130 -232 -375 -14 -84 -25 -157 -25 -162
0 -5 -64 -6 -144 -2 l-143 6 -21 -64 c-29 -88 -42 -169 -42 -256 l0 -73 140 0
140 0 0 -30 c0 -16 -14 -114 -30 -217 -17 -103 -42 -260 -55 -348 -14 -88 -35
-218 -47 -290 -43 -256 -24 -401 63 -485 78 -76 163 -100 351 -100 163 0 440
27 450 43 25 40 46 248 34 331 l-7 46 -131 0 c-238 0 -246 16 -183 400 31 194
82 517 92 590 l8 55 225 5 225 5 24 80 c16 54 25 116 28 194 l6 113 -222 -7
c-121 -4 -221 -5 -221 -2 0 10 41 276 61 399 12 70 19 134 15 143 -4 13 -30
15 -158 14 -92 0 -172 -6 -201 -13z"/>
<path d="M8815 3245 c-271 -49 -529 -283 -659 -597 -78 -189 -118 -403 -119
-638 -1 -188 17 -288 74 -408 94 -196 262 -285 506 -269 107 7 210 38 322 97
41 22 77 38 79 35 3 -2 -1 -35 -8 -72 -41 -231 -117 -345 -270 -405 -47 -19
-74 -22 -190 -22 -150 0 -261 21 -400 76 l-75 30 -37 -41 c-48 -55 -122 -199
-144 -284 -16 -59 -17 -69 -4 -77 29 -19 187 -63 315 -88 112 -22 158 -25 325
-26 167 0 208 3 287 22 331 79 529 252 648 567 49 130 103 366 140 615 20 127
61 388 85 530 10 63 24 153 30 200 31 235 75 370 145 436 32 30 33 32 23 84
-11 60 -53 151 -92 197 -24 28 -27 29 -84 22 -101 -11 -202 -53 -266 -110
l-35 -30 -54 41 c-148 111 -340 152 -542 115z m270 -429 c27 -13 68 -39 90
-58 l39 -35 -13 -94 c-12 -93 -52 -344 -92 -589 -12 -77 -26 -132 -37 -143
-46 -52 -190 -115 -267 -118 -70 -3 -84 0 -118 31 -95 83 -110 261 -46 573 38
191 115 352 196 414 41 31 114 52 163 46 19 -2 57 -14 85 -27z"/>
<path d="M10870 3248 c-91 -11 -234 -58 -310 -100 -329 -187 -529 -571 -547
-1053 -6 -162 10 -275 56 -396 69 -181 238 -321 441 -366 93 -20 306 -23 410
-4 94 17 214 62 305 115 82 48 225 185 282 271 138 205 218 470 230 755 23
561 -298 849 -867 778z m150 -409 c64 -14 101 -45 131 -111 22 -48 24 -66 23
-193 -1 -214 -55 -486 -122 -623 -36 -74 -102 -146 -154 -167 -61 -25 -165
-24 -215 2 -52 27 -91 93 -105 177 -30 182 56 652 143 779 58 84 108 122 182
137 59 11 60 11 117 -1z"/>
<path d="M4100 3244 c-186 -15 -440 -64 -620 -120 l-120 -37 0 -73 c0 -92 22
-210 51 -266 12 -23 22 -44 24 -46 1 -1 42 9 91 24 246 71 335 88 459 89 102
0 125 -3 154 -20 71 -42 90 -100 76 -229 l-7 -66 -196 2 c-121 1 -222 -3 -262
-11 -395 -74 -648 -347 -652 -702 -1 -147 35 -250 119 -340 95 -101 229 -146
403 -135 163 11 300 61 459 168 68 46 75 49 84 32 49 -87 173 -163 282 -172
l66 -5 46 44 c51 50 123 147 149 201 17 36 17 37 -9 68 -15 17 -32 50 -38 73
-16 61 -16 64 86 707 41 257 46 317 34 409 -13 108 -47 179 -121 254 -61 62
-141 105 -242 131 -59 16 -232 26 -316 20z m43 -1101 c5 -7 -26 -229 -38 -281
-8 -31 -103 -90 -195 -120 -172 -55 -279 7 -266 152 11 111 86 213 180 242 44
14 312 19 319 7z"/>
<path d="M2013 3183 c-56 -56 -119 -146 -142 -202 -12 -27 -11 -34 8 -60 31
-44 51 -96 62 -163 12 -76 2 -157 -96 -768 -74 -461 -98 -620 -93 -625 2 -2
63 -9 135 -15 132 -10 388 0 404 17 9 9 29 131 139 833 17 107 35 225 41 263
10 64 14 70 70 127 37 36 86 72 127 92 61 30 74 33 157 32 49 0 110 -7 135
-13 43 -13 45 -12 67 16 61 75 169 328 188 441 l7 41 -44 13 c-70 21 -290 17
-362 -6 -111 -37 -230 -132 -304 -243 -19 -29 -36 -53 -38 -53 -1 0 -8 17 -14
38 -48 148 -170 249 -339 280 l-53 10 -55 -55z"/>
<path d="M7210 2760 c-63 -4 -118 -8 -122 -9 -28 -5 -78 -214 -78 -325 l0 -66
50 0 c105 0 150 -44 150 -147 0 -38 -138 -630 -189 -810 -5 -18 -5 -35 -1 -38
5 -3 69 -10 142 -16 131 -10 385 2 399 19 5 7 17 58 94 392 20 85 42 182 50
215 94 384 107 487 71 592 -23 67 -83 135 -151 168 -49 24 -68 27 -177 30 -68
2 -175 -1 -238 -5z"/>
</g>
</svg>
